# xmcd CD database file
#
# Track frame offsets:
#	150
#	33626
#	60763
#	85896
#	117428
#	151875
#	184680
#	211442
#
# Disc length: 3117 seconds
#
# Revision: 0
# Processed by: cddbd v1.4PL0 Copyright (c) Steve Scherf et al.
# Submitted via: CDex 1.51
#
DISCID=620c2b08
DTITLE=Llewellyn - Sacred Woman
DYEAR=1998
DGENRE=New Age
TTITLE0=Llewellyn - Sacred Woman - 01 - Moon (Woman)
TTITLE1=Llewellyn - Sacred Woman - 02 - Sun (Man)
TTITLE2=Llewellyn - Sacred Woman - 03 - Sharing Of The Sky
TTITLE3=Llewellyn - Sacred Woman - 04 - Spirits Of Fortune
TTITLE4=Llewellyn - Sacred Woman - 05 - Sacred Skies
TTITLE5=Llewellyn - Sacred Woman - 06 - Moonlight Shadows
TTITLE6=Llewellyn - Sacred Woman - 07 - Call Of His Dawn
TTITLE7=Llewellyn - Sacred Woman - 08 - In The Flames Of Their Love
EXTD=YEAR: 1998
EXTT0=
EXTT1=
EXTT2=
EXTT3=
EXTT4=
EXTT5=
EXTT6=
EXTT7=
PLAYORDER=
